<svg xmlns="http://www.w3.org/2000/svg" viewBox="0 0 400 300">
  <!-- Ticket outer shadow/border -->
  <path d="M60 80 C60 65, 72 50, 87 50 L313 50 C328 50, 340 65, 340 80 L340 120 C330 130, 330 140, 340 150 L340 220 C330 230, 330 240, 340 250 L340 280 C340 295, 328 310, 313 310 L87 310 C72 310, 60 295, 60 280 L60 250 C70 240, 70 230, 60 220 L60 150 C70 140, 70 130, 60 120 Z" fill="#C2185B"/>
  
  <!-- Main ticket body -->
  <path d="M70 85 C70 72, 80 60, 93 60 L307 60 C320 60, 330 72, 330 85 L330 122 C322 130, 322 138, 330 146 L330 214 C322 222, 322 230, 330 238 L330 275 C330 288, 320 300, 307 300 L93 300 C80 300, 70 288, 70 275 L70 238 C78 230, 78 222, 70 214 L70 146 C78 138, 78 130, 70 122 Z" fill="#E91E63"/>
  
  <!-- Inner ticket area with gradient -->
  <path d="M85 95 C85 86, 92 78, 101 78 L299 78 C308 78, 315 86, 315 95 L315 125 C309 130, 309 135, 315 140 L315 220 C309 225, 309 230, 315 235 L315 265 C315 274, 308 282, 299 282 L101 282 C92 282, 85 274, 85 265 L85 235 C91 230, 91 225, 85 220 L85 140 C91 135, 91 130, 85 125 Z" fill="#F06292"/>
  
  <!-- Camera/projector icon -->
  <!-- Main camera body -->
  <rect x="160" y="140" width="80" height="55" rx="8" fill="white"/>
  
  <!-- Large lens -->
  <circle cx="185" cy="167" r="18" fill="white"/>
  <circle cx="185" cy="167" r="12" fill="#E91E63"/>
  
  <!-- Small viewfinder -->
  <circle cx="215" cy="155" r="8" fill="white"/>
  <circle cx="215" cy="155" r="5" fill="#E91E63"/>
  
  <!-- Film strip/projector element -->
  <polygon points="240,165 270,160 265,175 245,180" fill="rgba(255,255,255,0.9)"/>
  
</svg>